#!OML:ASF I:\Actors\actors\Patient Classification 2\Patient 1\Session 1\actor1.ASF
:FULLY-SPECIFIED
:DEGREES
182
root -0.675994 18.8431 5.28919 8.68894 1.13953 -0.730774
lowerback 18.9767 -0.271386 1.27328
upperback 3.20111 0.0235059 1.51401
thorax -7.16717 -0.00177661 0.896573
lowerneck -4.82972 -1.27456 -1.10047
upperneck 0.594395 -1.66871 1.57084
head 1.01115 -0.814396 0.629076
rclavicle 1.98785e-016 -5.56597e-015
rhumerus 32.2038 46.8493 -72.2657
rradius 146.12
rwrist -24.8951
rhand -25.5323 -14.4641
rfingers 7.12502
rthumb 0.997436 -44.4416
lclavicle 1.98785e-016 -5.56597e-015
lhumerus 36.5647 -47.7714 68.7651
lradius 146.165
lwrist 50.5264
lhand -26.2693 -60.328
lfingers 7.12502
lthumb 0.285609 -30.3484
rfemur -2.09186 3.21789 14.3805
rtibia 1.03368e-014
rfoot -18.9413 -17.0212
rtoes -3.25923
lfemur -16.9964 -4.18929 -12.1327
ltibia 23.7827
lfoot -16.3596 7.31244
ltoes -56.7022
183
root -0.674188 18.8445 5.29327 8.78868 1.13672 -0.750668
lowerback 19.1105 -0.257749 1.28888
upperback 3.23239 0.0464569 1.50732
thorax -7.20552 0.00879744 0.875561
lowerneck -5.2787 -1.28698 -1.24515
upperneck 0.60557 -1.67886 1.84956
head 1.09755 -0.813603 0.73816
rclavicle 1.39149e-015 -5.96354e-015
rhumerus 32.2079 46.698 -72.9698
rradius 146.538
rwrist -29.9221
rhand -24.282 -14.8769
rfingers 7.12502
rthumb 2.20501 -44.8453
lclavicle 1.39149e-015 -5.96354e-015
lhumerus 36.5021 -47.4515 69.3753
lradius 146.656
lwrist 54.4422
lhand -26.1545 -58.9885
lfingers 7.12502
lthumb 0.396496 -29.0091
rfemur -2.19031 3.21324 14.3884
rtibia 3.97569e-015
rfoot -18.9319 -17.0653
rtoes -3.54952
lfemur -17.1353 -4.11471 -12.1203
ltibia 23.8533
lfoot -16.3494 7.27727
ltoes -56.7803
184
root -0.673289 18.8465 5.29595 8.87858 1.13043 -0.762606
lowerback 19.2178 -0.234426 1.31379
upperback 3.2729 0.0823056 1.49031
thorax -7.21952 0.0252955 0.834568
lowerneck -5.63011 -1.31504 -1.37913
upperneck 0.594883 -1.70993 2.10169
head 1.16067 -0.823641 0.837621
rclavicle 1.19271e-015 2.34566e-014
rhumerus 32.1617 46.6693 -73.5836
rradius 146.807
rwrist -33.5319
rhand -23.6559 -15.3526
rfingers 7.12502
rthumb 2.80968 -45.3138
lclavicle 1.19271e-015 2.34566e-014
lhumerus 36.6902 -47.3789 69.6122
lradius 146.833
lwrist 56.2277
lhand -26.1804 -58.366
lfingers 7.12502
lthumb 0.371476 -28.3866
rfemur -2.28653 3.2125 14.3925
rtibia 8.74653e-015
rfoot -18.922 -17.097
rtoes -3.81211
lfemur -17.2611 -4.09571 -12.0976
ltibia 23.9142
lfoot -16.3527 7.24673
ltoes -56.7724
185
root -0.671698 18.8491 5.29863 8.95829 1.1406 -0.734162
lowerback 19.345 -0.203934 1.3356
upperback 3.25752 0.126535 1.44821
thorax -7.30474 0.0454125 0.766609
lowerneck -5.77742 -1.3368 -1.39134
upperneck 0.589625 -1.73896 2.19993
head 1.18667 -0.835692 0.869189
rclavicle 0 -3.97569e-016
rhumerus 32.0054 46.7059 -74.1141
rradius 146.885
rwrist -35.1848
rhand -23.3445 -15.6514
rfingers 7.12502
rthumb 3.11041 -45.6084
lclavicle 0 -3.97569e-016
lhumerus 37.0426 -47.6718 69.5114
lradius 146.726
lwrist 55.5041
lhand -26.2424 -58.5489
lfingers 7.12502
lthumb 0.311625 -28.5694
rfemur -2.36601 3.18963 14.3536
rtibia 4.77083e-015
rfoot -18.9346 -17.1215
rtoes -3.86592
lfemur -17.3702 -4.10659 -12.1142
ltibia 23.9662
lfoot -16.3851 7.20935
ltoes -56.6161
186
root -0.67132 18.8515 5.30065 9.051 1.14839 -0.709983
lowerback 19.5123 -0.155574 1.33758
upperback 3.16703 0.191818 1.39825
thorax -7.49309 0.0755801 0.696562
lowerneck -5.77652 -1.33665 -1.19013
upperneck 0.622399 -1.75031 2.08108
head 1.19283 -0.842611 0.797413
rclavicle 1.19271e-015 -5.56597e-015
rhumerus 31.8885 46.8748 -74.4479
rradius 146.674
rwrist -34.7367
rhand -23.5833 -15.6966
rfingers 7.12502
rthumb 2.87984 -45.6569
lclavicle 1.19271e-015 -5.56597e-015
lhumerus 37.3784 -48.1705 69.2442
lradius 146.355
lwrist 52.6271
lhand -26.0317 -59.2603
lfingers 7.12502
lthumb 0.515153 -29.2812
rfemur -2.46347 3.16914 14.3236
rtibia -1.51076e-014
rfoot -18.9389 -17.1719
rtoes -3.82628
lfemur -17.4953 -4.06881 -12.1357
ltibia 24.013
lfoot -16.3916 7.16466
ltoes -56.538
187
root -0.672467 18.8534 5.30149 9.12999 1.15855 -0.707107
lowerback 19.7163 -0.11153 1.3353
upperback 3.09259 0.252001 1.36075
thorax -7.68394 0.103405 0.643228
lowerneck -5.90177 -1.29315 -0.92129
upperneck 0.719661 -1.70558 1.83339
head 1.23805 -0.822665 0.675241
rclavicle 3.18055e-015 4.37326e-015
rhumerus 31.9909 47.3114 -74.4229
rradius 146.365
rwrist -32.5817
rhand -24.5145 -15.869
rfingers 7.12502
rthumb 1.98045 -45.8395
lclavicle 3.18055e-015 4.37326e-015
lhumerus 37.7502 -48.6827 68.8317
lradius 145.807
lwrist 48.2353
lhand -25.8431 -60.2254
lfingers 7.12502
lthumb 0.697281 -30.2468
rfemur -2.55153 3.15231 14.3278
rtibia -7.15625e-015
rfoot -18.8644 -17.2878
rtoes -4.30311
lfemur -17.6127 -4.04239 -12.134
ltibia 24.0544
lfoot -16.3606 7.16585
ltoes -56.5918
188
root -0.673169 18.8544 5.30126 9.19371 1.19014 -0.707654
lowerback 19.8941 -0.0753923 1.36911
upperback 3.08304 0.307958 1.32891
thorax -7.78982 0.128555 0.575625
lowerneck -6.14776 -1.2186 -0.801691
upperneck 0.794423 -1.61123 1.70355
head 1.30039 -0.776016 0.616309
rclavicle -2.5842e-015 3.97569e-016
rhumerus 32.3011 47.9002 -74.1179
rradius 146.106
rwrist -29.3336
rhand -25.7697 -16.3705
rfingers 7.12502
rthumb 0.768196 -46.3489
lclavicle -2.5842e-015 3.97569e-016
lhumerus 38.298 -49.1815 68.3069
lradius 145.182
lwrist 42.8879
lhand -25.8148 -61.0564
lfingers 7.12502
lthumb 0.724632 -31.0779
rfemur -2.61807 3.11651 14.3416
rtibia -1.03368e-014
rfoot -18.7799 -17.4102
rtoes -5.03005
lfemur -17.7266 -4.0475 -12.127
ltibia 24.0961
lfoot -16.2995 7.21008
ltoes -56.6971
189
root -0.67286 18.8539 5.30055 9.27024 1.25032 -0.685179
lowerback 20.0164 -0.0335771 1.38517
upperback 3.09812 0.366502 1.30418
thorax -7.83898 0.155722 0.524581
lowerneck -6.36783 -1.15607 -0.863192
upperneck 0.834559 -1.52493 1.78801
head 1.35234 -0.730307 0.655012
rclavicle -1.39149e-015 7.95139e-016
rhumerus 32.7615 48.4197 -73.6553
rradius 145.786
rwrist -25.404
rhand -27.3425 -16.9261
rfingers 7.12502
rthumb -0.750912 -46.9046
lclavicle -1.39149e-015 7.95139e-016
lhumerus 38.8596 -49.8451 67.8018
lradius 144.563
lwrist 36.8334
lhand -25.6968 -61.705
lfingers 7.12502
lthumb 0.838563 -31.7269
rfemur -2.69456 3.04651 14.3247
rtibia 2.38542e-015
rfoot -18.7676 -17.4737
rtoes -5.3818
lfemur -17.8656 -4.08675 -12.141
ltibia 24.1553
lfoot -16.2499 7.20893
ltoes -56.773
190
root -0.671793 18.8534 5.29998 9.37235 1.35033 -0.667052
lowerback 20.1017 -0.00648946 1.40848
upperback 3.12441 0.406668 1.28324
thorax -7.85586 0.174092 0.478068
lowerneck -6.58608 -1.09818 -0.769435
upperneck 0.827817 -1.4527 1.74176
head 1.38589 -0.693717 0.626249
rclavicle 2.5842e-015 -1.19271e-015
rhumerus 33.3429 48.8954 -73.0875
rradius 145.313
rwrist -20.6414
rhand -29.0585 -17.3404
rfingers 7.12502
rthumb -2.40817 -47.3066
lclavicle 2.5842e-015 -1.19271e-015
lhumerus 39.3763 -50.5036 67.3126
lradius 143.99
lwrist 30.6039
lhand -25.3743 -62.4608
lfingers 7.12502
lthumb 1.15002 -32.4841
rfemur -2.79164 2.9342 14.3056
rtibia 4.77083e-015
rfoot -18.7701 -17.5041
rtoes -5.60128
lfemur -18.0564 -4.11532 -12.1473
ltibia 24.246
lfoot -16.2127 7.1283
ltoes -56.7694
191
root -0.669898 18.8532 5.30009 9.49526 1.48438 -0.669734
lowerback 20.1478 0.00870877 1.46407
upperback 3.1583 0.439553 1.28913
thorax -7.84326 0.188621 0.443996
lowerneck -6.72306 -1.00873 -0.463923
upperneck 0.694758 -1.34666 1.40951
head 1.35919 -0.646171 0.473706
rclavicle -3.97569e-015 -6.75868e-015
rhumerus 34.027 49.5249 -72.345
rradius 144.856
rwrist -15.6643
rhand -30.724 -17.9606
rfingers 7.12502
rthumb -4.01659 -47.9025
lclavicle -3.97569e-015 -6.75868e-015
lhumerus 39.9991 -50.6654 66.8768
lradius 143.443
lwrist 25.1823
lhand -24.8676 -63.0107
lfingers 7.12502
lthumb 1.63948 -33.0373
rfemur -2.90333 2.78947 14.3112
rtibia 0
rfoot -18.7618 -17.5257
rtoes -5.6156
lfemur -18.2923 -4.10675 -12.1347
ltibia 24.3604
lfoot -16.1523 7.03413
ltoes -56.7962
